#
#
#

mtllib Table.mtl


#
#  Mesh
#
g  Mesh


#
#  Mesh_Mat
#
usemtl  Mesh_Mat

v -15.066600 -23.133301 59.897800
v -15.066600 -23.133301 65.897797
v -21.066601 -23.133301 59.897800
v -15.066600 -23.133301 -66.007004
v -15.066600 -23.133301 -60.007000
v -21.066601 -23.133301 -66.007004
v -21.066601 -23.133301 -60.007000
v 15.034000 -23.133301 65.824203
v 15.034000 -23.133301 59.824200
v 21.034000 -23.133301 65.824203
v -25.000000 16.937201 70.000000
v -25.000000 16.937201 -70.000000
v 25.000000 16.937201 70.000000
v 25.000000 16.937201 -70.000000
v -21.066601 -23.133301 65.897797
v 15.034000 -23.133301 -60.080601
v 15.034000 -23.133301 -66.080597
v 21.034000 -23.133301 -60.080601
v 21.034000 -23.133301 -66.080597
v 21.034000 -23.133301 59.824200
v 25.000000 23.133301 -70.000000
v -25.000000 23.133301 -70.000000
v 25.000000 23.133301 70.000000
v -25.000000 23.133301 70.000000
v 15.034000 16.986900 -60.080601
v -22.080000 10.799300 67.080002
v -22.080000 16.995300 67.080002
v -22.080000 10.799300 -67.080002
v -21.066601 16.986900 -60.007000
v -18.113100 -15.446700 60.405102
v -18.113100 -6.400070 60.405102
v -18.113100 -15.446700 -60.694698
v -18.113100 -6.400060 -60.694698
v -18.113100 -6.400070 60.405102
v -18.113100 -15.446700 -60.694698
v -18.113100 -6.400060 -60.694698
v -18.113100 -15.446700 60.405102
v -22.080000 16.995300 -67.080002
v 15.034000 16.986900 -66.080597
v -21.066601 16.986900 59.897800
v -21.066601 16.986900 65.897797
v 15.034000 16.986900 65.824203
v -22.080000 16.995300 67.080002
v -22.080000 10.799300 -67.080002
v -22.080000 16.995300 -67.080002
v -21.066601 16.986900 -66.007004
v -22.080000 10.799300 67.080002
v 15.034000 16.986900 59.824200
v 21.034000 16.986900 -60.080601
v -15.066600 16.986900 65.897797
v -15.066600 16.986900 -60.007000
v 22.080000 16.995300 67.080002
v 22.080000 10.799300 67.080002
v 22.080000 16.995300 67.080002
v 22.080000 10.799300 67.080002
v 21.034000 16.986900 65.824203
v 21.034000 16.986900 59.824200
v 18.166201 -6.400070 60.405102
v 18.166201 -15.446700 60.405102
v 18.166201 -6.400060 -60.694698
v 18.166201 -15.446700 -60.694698
v 22.080000 16.995300 -67.080002
v 22.080000 10.799300 -67.080002
v -15.066600 16.986900 59.897800
v 18.166201 -6.400060 -60.694698
v 18.166201 -15.446700 60.405102
v 18.166201 -6.400070 60.405102
v 18.166201 -15.446700 -60.694698
v 21.034000 16.986900 -66.080597
v -15.066600 16.986900 -66.007004
v 22.080000 10.799300 -67.080002
v 22.080000 16.995300 -67.080002
v 15.697100 -15.446700 -63.144199
v -15.453900 -6.400060 -63.144199
v -15.453900 -15.446700 -63.144199
v 15.697100 -6.400060 -63.144199
v -15.453900 -15.446700 -63.144199
v -15.453900 -6.400060 -63.144199
v 15.697100 -15.446700 -63.144199
v 15.697100 -6.400060 -63.144199
v 15.697100 -15.446700 62.524399
v -15.453900 -6.400070 62.524399
v -15.453900 -15.446700 62.524399
v 15.697100 -6.400070 62.524399
v -15.453900 -15.446700 62.524399
v -15.453900 -6.400070 62.524399
v 15.697100 -15.446700 62.524399
v 15.697100 -6.400070 62.524399
vn 0.408248 -0.408248 -0.816497
vn 0.666667 -0.666667 0.333333
vn -0.666667 -0.666667 -0.333333
vn -0.408248 -0.408248 0.816497
vn 0.816497 0.408248 -0.408248
vn -0.333333 0.666667 -0.666667
vn 0.333333 0.666667 0.666667
vn -0.816497 0.408248 0.408248
vn -0.894427 0.000000 0.447214
vn -0.447214 0.000000 0.894427
vn -0.894427 0.000000 -0.447214
vn -1.000000 0.000000 0.000000
vn 1.000000 0.000000 0.000000
vn -0.447214 0.000000 -0.894427
vn 0.894427 0.000000 -0.447214
vn 0.894427 0.000000 0.447214
vn 0.447214 0.000000 0.894427
vn 0.447214 0.000000 -0.894427
vn 0.000000 0.000000 1.000000
vn 0.000000 0.000000 -1.000000
vt 0.027340 -0.011720
vt 0.113280 -0.011720
vt 0.027340 -0.082030
vt 0.031250 -0.011720
vt 0.031250 -0.082030
vt 0.113280 -0.082030
vt 0.984380 -0.640630
vt 0.175780 -0.640630
vt 0.984380 -0.011720
vt 0.175780 -0.011720
vt 0.121090 -0.839840
vt 0.121090 -0.007810
vt 0.019530 -0.839840
vt 0.984380 -0.789060
vt 0.984380 -0.726560
vt 0.234380 -0.789060
vt 0.984380 -0.988280
vt 0.984380 -0.859380
vt 0.011720 -0.988280
vt 0.011720 -0.859380
vt 0.234380 -0.726560
vt 0.984380 -0.550780
vt 0.984380 -0.488280
vt 0.347660 -0.550780
vt 0.347660 -0.488280
vt 0.015630 -0.007810
vt 0.015630 -0.003910
vt 0.570310 -0.015630
vt 0.496090 -0.015630
vt 0.570310 -0.640630
vt 0.496090 -0.640630
vt 0.980470 -0.726560
vt 0.980470 -0.789060
vt 0.238280 -0.726560
vt 0.238280 -0.789060
vt 0.183590 -0.988280
vt 0.535160 -0.859380
vt 0.535160 -0.988280
vt 0.183590 -0.859380
f 1/1/1 2/2/2 3/3/3
f 4/4/1 5/2/2 6/5/3
f 7/6/4 6/5/3 5/2/2
f 8/6/4 9/5/3 10/2/2
f 11/7/4 12/8/3 13/9/2
f 14/10/1 13/9/2 12/8/3
f 15/6/4 3/3/3 2/2/2
f 16/6/4 17/3/3 18/2/2
f 19/1/1 18/2/2 17/3/3
f 20/4/1 10/2/2 9/5/3
f 21/10/5 22/8/6 23/9/7
f 24/7/8 23/9/7 22/8/6
f 16/11/4 25/12/9 17/13/3
f 26/14/10 27/15/9 28/16/11
f 7/11/4 29/12/9 6/13/3
f 30/17/12 31/18/12 32/19/12
f 33/20/12 32/19/12 31/18/12
f 34/18/13 35/19/13 36/20/13
f 35/19/13 34/18/13 37/17/13
f 38/21/14 28/16/11 27/15/9
f 11/22/4 24/23/8 12/24/3
f 22/25/6 12/24/3 24/23/8
f 39/26/14 17/13/3 25/12/9
f 40/26/14 3/13/3 41/12/9
f 8/11/4 42/12/9 9/13/3
f 43/15/15 44/16/16 45/21/17
f 15/11/4 41/12/9 3/13/3
f 46/26/14 6/13/3 29/12/9
f 44/16/16 43/15/15 47/14/18
f 48/26/14 9/13/3 42/12/9
f 25/27/9 16/13/4 49/12/17
f 24/28/8 11/29/4 23/30/7
f 2/11/2 50/12/17 15/13/4
f 41/27/9 15/13/4 50/12/17
f 13/31/2 23/30/7 11/29/4
f 5/11/2 51/12/17 7/13/4
f 29/27/9 7/13/4 51/12/17
f 27/32/9 26/33/10 52/34/17
f 53/35/16 52/34/17 26/33/10
f 54/34/14 47/33/18 43/32/15
f 47/33/18 54/34/14 55/35/11
f 18/11/2 49/12/17 16/13/4
f 10/11/2 56/12/17 8/13/4
f 42/27/9 8/13/4 56/12/17
f 20/11/1 57/12/15 10/13/2
f 56/27/17 10/13/2 57/12/15
f 58/18/13 59/17/13 60/20/13
f 61/19/13 60/20/13 59/17/13
f 55/14/11 62/21/9 63/16/10
f 62/21/9 55/14/11 54/15/14
f 50/27/17 2/13/2 64/12/15
f 1/11/1 64/12/15 2/13/2
f 65/20/12 66/17/12 67/18/12
f 66/17/12 65/20/12 68/19/12
f 19/11/1 69/12/15 18/13/2
f 49/27/17 18/13/2 69/12/15
f 51/27/17 5/13/2 70/12/15
f 4/11/1 70/12/15 5/13/2
f 23/23/7 13/22/2 21/25/5
f 14/24/1 21/25/5 13/22/2
f 71/16/18 72/21/15 53/14/16
f 52/15/17 53/14/16 72/21/15
f 28/33/11 38/32/14 71/35/18
f 72/34/15 71/35/18 38/32/14
f 69/27/15 19/13/1 39/12/14
f 17/11/3 39/12/14 19/13/1
f 6/11/3 46/12/14 4/13/1
f 70/27/15 4/13/1 46/12/14
f 45/32/17 63/35/10 62/34/9
f 63/35/10 45/32/17 44/33/16
f 12/29/3 22/28/6 14/31/1
f 21/30/5 14/31/1 22/28/6
f 3/11/3 40/12/14 1/13/1
f 64/27/15 1/13/1 40/12/14
f 57/27/15 20/13/1 48/12/14
f 9/11/3 48/12/14 20/13/1
f 73/36/19 74/37/19 75/38/19
f 74/37/19 73/36/19 76/39/19
f 77/38/20 78/37/20 79/36/20
f 80/39/20 79/36/20 78/37/20
f 81/36/19 82/37/19 83/38/19
f 82/37/19 81/36/19 84/39/19
f 85/38/20 86/37/20 87/36/20
f 88/39/20 87/36/20 86/37/20
